<svg width="14" height="16" viewBox="0 0 14 16" fill="none" xmlns="http://www.w3.org/2000/svg">
<path d="M9.27864 2.78425C9.57163 2.44657 9.79503 2.05434 9.936 1.63008C10.077 1.20582 10.1328 0.757889 10.1001 0.312012C9.20066 0.384619 8.3657 0.807666 7.77515 1.49001C7.49235 1.81704 7.27805 2.19749 7.14493 2.60883C7.01181 3.02017 6.96258 3.45404 7.00015 3.88475C7.43891 3.88841 7.87263 3.79105 8.26774 3.60022C8.66284 3.40938 9.00873 3.13019 9.27864 2.78425ZM11.2316 8.55023C11.2368 7.95638 11.3933 7.37365 11.6861 6.85702C11.979 6.3404 12.3987 5.90692 12.9056 5.59749C12.5857 5.13656 12.1628 4.75649 11.6705 4.48745C11.1781 4.2184 10.6298 4.06777 10.0691 4.0475C8.86015 3.9235 7.74415 4.75275 7.1009 4.75275C6.45765 4.75275 5.55091 4.063 4.54341 4.0785C3.88476 4.1002 3.24298 4.29223 2.68066 4.63587C2.11834 4.97951 1.65469 5.46302 1.33492 6.03924C-0.029075 8.41074 0.986172 11.937 2.35017 13.8512C2.97017 14.789 3.74516 15.8507 4.76816 15.812C5.79116 15.7732 6.1244 15.1765 7.31015 15.1765C8.4959 15.1765 8.86014 15.812 9.86764 15.7887C10.8751 15.7655 11.5881 14.8277 12.2391 13.89C12.7003 13.2092 13.0605 12.4652 13.3086 11.6812C12.6944 11.4193 12.1704 10.9832 11.8013 10.4267C11.4322 9.87032 11.2341 9.21795 11.2316 8.55023Z" fill="#333333"/>
</svg>
