<svg width="12" height="10" viewBox="0 0 12 10" fill="none" xmlns="http://www.w3.org/2000/svg">
<path d="M9.57487 1.06409L4.45967 6.69803L2.41759 4.44471L2.41763 4.44468L2.4144 4.44125C2.32324 4.34439 2.21432 4.26685 2.09318 4.21434C1.97196 4.1618 1.8416 4.13568 1.70981 4.13819C1.57803 4.1407 1.44872 4.17175 1.32947 4.22876C1.21031 4.28573 1.10415 4.36717 1.01632 4.46718C0.928524 4.56715 0.860565 4.6839 0.815288 4.81027C0.770016 4.93663 0.748021 5.07089 0.75014 5.20561C0.752259 5.34032 0.778465 5.47377 0.827758 5.59852C0.876773 5.72257 0.947959 5.8363 1.03832 5.93275L3.76863 8.93591C3.76875 8.93605 3.76887 8.93618 3.769 8.93632C3.85705 9.03386 3.96308 9.11273 4.0817 9.16708C4.20057 9.22155 4.32905 9.25 4.45949 9.25C4.58994 9.25 4.71842 9.22155 4.83729 9.16708C4.95591 9.11273 5.06194 9.03386 5.14999 8.93632C5.15011 8.93618 5.15024 8.93605 5.15036 8.93591L10.9528 2.55363C11.0475 2.4565 11.1218 2.34045 11.1725 2.21326C11.2238 2.0844 11.25 1.94606 11.25 1.80676C11.25 1.66746 11.2238 1.52912 11.1725 1.40027C11.1219 1.27312 11.0475 1.1571 10.9529 1.05999C10.8655 0.964149 10.7606 0.886588 10.6435 0.832918C10.5247 0.778447 10.3962 0.75 10.2657 0.75C10.1353 0.75 10.0068 0.778447 9.88794 0.832918C9.76929 0.887289 9.66324 0.966177 9.57517 1.06375C9.57507 1.06386 9.57497 1.06398 9.57487 1.06409Z" fill="#303030" stroke="#303030" stroke-width="0.5"/>
</svg>
