<svg width="23" height="23" viewBox="0 0 23 23" fill="none" xmlns="http://www.w3.org/2000/svg">
<rect width="23" height="23" fill="#E5E5E5"/>
<rect width="360" height="670" transform="translate(-53 -447)" fill="#FAFAFA"/>
<rect x="-53" y="-447" width="360" height="670" fill="#F6E229"/>
<rect x="-43" y="-8.9375" width="340" height="40" rx="10" fill="white"/>
<path d="M20.9987 0.653198H2.99871C1.89414 0.653198 0.998711 1.54863 0.998711 2.6532V20.6532C0.998711 21.7578 1.89414 22.6532 2.99871 22.6532H20.9987C22.1033 22.6532 22.9987 21.7578 22.9987 20.6532V2.6532C22.9987 1.54863 22.1033 0.653198 20.9987 0.653198Z" fill="#3B5A9A"/>
<path d="M14.3258 5.93817V7.86822H13.274C12.9606 7.86822 12.7637 7.95372 12.6626 8.1247C12.5927 8.23869 12.5642 8.43817 12.5642 8.7076V9.58843H14.3543L14.1419 11.534H12.5668V17.1428H10.2533V11.534H9.11859V9.58843H10.2533V8.42522C10.2533 7.23351 10.6652 6.46667 11.4735 6.14024C11.8699 5.9848 12.2119 5.94076 12.5668 5.94076H14.3284L14.3258 5.93817Z" fill="#F7F8F8"/>
</svg>
