<svg width="23" height="23" viewBox="0 0 23 23" fill="none" xmlns="http://www.w3.org/2000/svg">
<rect width="23" height="23" fill="#E5E5E5"/>
<rect width="360" height="670" transform="translate(-53 -348)" fill="#FAFAFA"/>
<rect x="-53" y="-348" width="360" height="670" fill="#F6E229"/>
<rect x="-43" y="-9.9375" width="340" height="40" rx="10" fill="white"/>
<path d="M20.9987 0.0263672H2.99871C1.89414 0.0263672 0.998711 0.921797 0.998711 2.02637V20.0264C0.998711 21.1309 1.89414 22.0264 2.99871 22.0264H20.9987C22.1033 22.0264 22.9987 21.1309 22.9987 20.0264V2.02637C22.9987 0.921798 22.1033 0.0263672 20.9987 0.0263672Z" fill="#FCEE2D"/>
<path d="M10.434 11.3105H10.7949L10.6144 10.9225L10.434 11.3105Z" fill="#3D1E1E"/>
<path d="M11.9987 6.27515C8.72237 6.27515 6.06728 8.33643 6.06728 10.8845C6.06728 12.3956 7.00816 13.7394 8.45686 14.5786C8.76104 14.7561 8.49553 15.1947 8.49553 15.1947L7.3046 16.7286C7.28398 16.792 7.30202 16.8579 7.34842 16.9036C7.37936 16.934 7.42318 16.9517 7.46958 16.9517C7.50567 16.9517 7.54176 16.9391 7.57269 16.9137C7.57269 16.9137 8.3022 16.7692 9.32557 16.2773C10.1608 15.9071 10.9315 15.4153 10.9315 15.4153C11.2795 15.4634 11.6378 15.4913 11.9987 15.4913C15.275 15.4913 17.9301 13.4275 17.9301 10.882C17.9301 8.33643 15.275 6.27515 11.9987 6.27515ZM8.99819 12.2055C8.99819 12.2055 8.99819 12.2181 8.99819 12.2232C8.99819 12.4514 8.81002 12.6339 8.5806 12.6339C8.35117 12.6339 8.163 12.4489 8.163 12.2232C8.163 12.2181 8.163 12.2105 8.163 12.2055V10.2633H7.60362C7.40514 10.2481 7.25047 10.0859 7.25047 9.8881C7.25047 9.69033 7.40514 9.52807 7.60362 9.51286H9.46477C9.67615 9.51286 9.84628 9.68019 9.84628 9.8881C9.84628 10.096 9.67615 10.2633 9.46477 10.2633H8.99819V12.2055ZM16.3319 12.6162C16.1953 12.6162 16.0742 12.5528 15.9994 12.4539L15.2725 11.4879L15.1204 11.6375V12.2156C15.1204 12.4438 14.9322 12.6263 14.7028 12.6263C14.5223 12.6263 14.3703 12.5122 14.311 12.355C14.2749 12.5097 14.1331 12.6263 13.9655 12.6263V12.6339H12.406V12.6238C12.2488 12.6086 12.1199 12.5097 12.0606 12.3728C12.0554 12.388 12.0503 12.4032 12.0425 12.4184C11.9729 12.5477 11.8337 12.6339 11.6765 12.6339C11.6533 12.6339 11.6327 12.6339 11.612 12.6289H11.6017C11.5811 12.6238 11.5605 12.6187 11.5424 12.6111H11.5321C11.5115 12.601 11.4935 12.5908 11.4754 12.5832C11.4574 12.5706 11.4393 12.5604 11.4213 12.5477C11.4032 12.5325 11.3878 12.5173 11.3749 12.5021H11.3723C11.3285 12.4489 11.295 12.3905 11.2769 12.3221L11.1429 12.033H10.1066L9.97001 12.3221C9.92619 12.5021 9.76121 12.6339 9.5653 12.6339C9.3333 12.6339 9.1477 12.4489 9.1477 12.2232C9.1477 12.17 9.15801 12.1193 9.17606 12.0736C9.18121 12.0609 9.18637 12.0483 9.19153 12.0356L10.2046 9.85006C10.2407 9.65737 10.4108 9.51286 10.6145 9.51286H10.6273C10.8336 9.51286 11.0037 9.65991 11.0372 9.85006L12.0296 11.995V10.0047H12.0322C12.0322 9.98951 12.0296 9.97176 12.0296 9.95655C12.0296 9.7309 12.2178 9.54582 12.4472 9.54582C12.6767 9.54582 12.8648 9.7309 12.8648 9.95655C12.8648 9.9743 12.8648 9.98951 12.8623 10.0047H12.8648V11.9266H13.9681C14.1099 11.9266 14.2311 12.0077 14.2878 12.1243V9.95909C14.2878 9.73344 14.4759 9.54835 14.7054 9.54835C14.9348 9.54835 15.123 9.73344 15.123 9.95909V10.4763L15.9246 9.6878C16.002 9.60159 16.1128 9.54835 16.2366 9.54835C16.4686 9.54835 16.6542 9.73344 16.6542 9.95909C16.6542 10.0656 16.6129 10.1594 16.5485 10.2329L16.5407 10.2405C16.5407 10.2405 16.5278 10.2532 16.5201 10.2608L15.8705 10.8997L16.6593 11.9494C16.716 12.0204 16.7521 12.1091 16.7521 12.208C16.7521 12.4362 16.5639 12.6187 16.3345 12.6187L16.3319 12.6162Z" fill="#3D1E1E"/>
<path d="M12.0889 12.1826C12.0889 12.1826 12.0863 12.1623 12.0838 12.1522V12.1446C12.0838 12.1446 12.076 12.1192 12.0735 12.1091C12.0735 12.1091 12.0657 12.0837 12.0606 12.0736C12.0554 12.0584 12.0503 12.0482 12.0451 12.0356L12.0245 11.995V12.0888H12.0451C12.0322 12.1294 12.0245 12.1725 12.0245 12.2156C12.0245 12.2714 12.0374 12.3246 12.058 12.3753C12.076 12.3271 12.0915 12.279 12.0915 12.2232C12.0915 12.2105 12.0915 12.1953 12.0915 12.1826H12.0889Z" fill="#FCEE2D"/>
<path d="M14.2826 12.1218V12.2131C14.2826 12.2638 14.2929 12.3094 14.3084 12.3525C14.3135 12.3272 14.3187 12.2993 14.3187 12.2714C14.3187 12.2156 14.3058 12.1649 14.2826 12.1193V12.1218Z" fill="#FCEE2D"/>
</svg>
