<svg width="17" height="13" viewBox="0 0 17 13" fill="none" xmlns="http://www.w3.org/2000/svg">
<path d="M14.3365 0.142883H3.13647C2.49995 0.142883 1.8895 0.39574 1.43941 0.845827C0.989322 1.29591 0.736465 1.90636 0.736465 2.54288V10.5429C0.736465 11.1794 0.989322 11.7899 1.43941 12.2399C1.8895 12.69 2.49995 12.9429 3.13647 12.9429H14.3365C14.973 12.9429 15.5834 12.69 16.0335 12.2399C16.4836 11.7899 16.7365 11.1794 16.7365 10.5429V2.54288C16.7365 1.90636 16.4836 1.29591 16.0335 0.845827C15.5834 0.39574 14.973 0.142883 14.3365 0.142883ZM14.0085 1.74288L9.30447 6.44688C9.23009 6.52187 9.14161 6.58138 9.04413 6.622C8.94664 6.66261 8.84207 6.68352 8.73647 6.68352C8.63086 6.68352 8.52629 6.66261 8.4288 6.622C8.33132 6.58138 8.24284 6.52187 8.16847 6.44688L3.46447 1.74288H14.0085ZM15.1365 10.5429C15.1365 10.7551 15.0522 10.9585 14.9022 11.1086C14.7521 11.2586 14.5486 11.3429 14.3365 11.3429H3.13647C2.92429 11.3429 2.72081 11.2586 2.57078 11.1086C2.42075 10.9585 2.33647 10.7551 2.33647 10.5429V2.87088L7.04047 7.57488C7.49047 8.02432 8.10046 8.27677 8.73647 8.27677C9.37247 8.27677 9.98246 8.02432 10.4325 7.57488L15.1365 2.87088V10.5429Z" fill="#333333"/>
</svg>
